<svg width="24" height="24" viewBox="0 0 24 24" fill="none" xmlns="http://www.w3.org/2000/svg">
<path d="M18.4564 12C18.7566 12 19.0022 12.2437 18.9789 12.5431C18.8776 13.8457 18.4131 15.0981 17.6332 16.1554C16.7454 17.3589 15.4954 18.2465 14.0665 18.688C12.6376 19.1295 11.1048 19.1018 9.69283 18.6089C8.28083 18.1159 7.06382 17.1837 6.22014 15.9488C5.37646 14.7139 4.95047 13.2413 5.00458 11.7467C5.0587 10.2521 5.59008 8.81414 6.52086 7.6435C7.45164 6.47287 8.73288 5.63112 10.1768 5.24159C11.4453 4.8994 12.7808 4.92202 14.0312 5.30118C14.3185 5.3883 14.4563 5.70568 14.3472 5.98535C14.238 6.26502 13.9233 6.40066 13.6348 6.31765C12.602 6.02053 11.5042 6.00957 10.46 6.29125C9.2403 6.62027 8.15805 7.33129 7.37183 8.32012C6.58561 9.30894 6.13676 10.5236 6.09105 11.786C6.04534 13.0485 6.40517 14.2924 7.11781 15.3355C7.83046 16.3786 8.85846 17.1661 10.0512 17.5824C11.2439 17.9988 12.5386 18.0222 13.7456 17.6493C14.9526 17.2763 16.0084 16.5266 16.7583 15.51C17.4003 14.6397 17.7892 13.6129 17.8879 12.5428C17.9154 12.2439 18.1562 12 18.4564 12Z" fill="#BBA485"/>
<path d="M12.0644 3.0947L14.4949 5.50007C14.7409 5.74354 14.6711 6.1573 14.3588 6.30657L11.1291 7.85031" stroke="#BBA485" stroke-linecap="round"/>
</svg>
