<svg width="24" height="24" viewBox="0 0 24 24" fill="none" xmlns="http://www.w3.org/2000/svg">
<rect width="24" height="24" fill="none"/>
<path d="M2.49994 8.5C2.49994 8.5 2.00015 7 2.50001 5.5C2.99988 4 4.2143 3 4.2143 3C4.2143 3 5.28571 6.33333 7 8" stroke="#D96390" stroke-linecap="round"/>
<path d="M21.5001 8.5C21.5001 8.5 21.9998 7 21.5 5.5C21.0001 4 19.7857 3 19.7857 3C19.7857 3 18.7143 6.33333 17 8" stroke="#D96390" stroke-linecap="round"/>
<path d="M10 20C10 20 10.8974 21 12.5 21C14.1026 21 15 20 15 20" stroke="#D96390" stroke-linecap="round"/>
<path d="M6.00007 12C8.50007 12 10.0001 15.5 10.0001 15.5C10.0001 15.5 5 16 4.00003 15C3.00006 14 3.50007 12 6.00007 12Z" fill="#D96390"/>
<path d="M17.9999 12C15.4999 12 13.9999 15.5 13.9999 15.5C13.9999 15.5 19 16 20 15C20.9999 14 20.4999 12 17.9999 12Z" fill="#D96390"/>
</svg>
