<svg width="24" height="24" viewBox="0 0 24 24" fill="none" xmlns="http://www.w3.org/2000/svg">
<rect width="24" height="24" fill="none"/>
<path d="M12 20.5L14 14.25C14 14.25 16 14.75 19 13.125C22 11.5 23 6 23 6C23 6 21.5 4 18 4C14.5 4 12 8 12 8C12 8 10 4 6 4C2 4 1 6 1 6C1 6 2.5 11.25 5 13.125C7.5 15 10 14.25 10 14.25L12 20.5Z" stroke="#D96390" stroke-linecap="round"/>
<path d="M15 10.6449L15.6641 9.34721C16.0728 8.54845 16.8885 8.03999 17.7856 8.02475L19.2432 8L18.735 8.99302C18.2303 9.97932 17.2231 10.6072 16.1153 10.626L15 10.6449Z" fill="#D96390"/>
<path d="M9.24316 10.6449L8.57911 9.34721C8.17037 8.54845 7.35466 8.03999 6.45753 8.02475L5 8L5.50814 8.99302C6.01285 9.97932 7.02007 10.6072 8.12785 10.626L9.24316 10.6449Z" fill="#D96390"/>
</svg>
