<svg width="24" height="24" viewBox="0 0 24 24" fill="none" xmlns="http://www.w3.org/2000/svg">
<path fill-rule="evenodd" clip-rule="evenodd" d="M3.5 6C3.77614 6 4 6.22386 4 6.5V17.5H11.5C11.7761 17.5 12 17.7239 12 18C12 18.2761 11.7761 18.5 11.5 18.5H3V6.5C3 6.22386 3.22386 6 3.5 6Z" fill="#BBA485"/>
<path fill-rule="evenodd" clip-rule="evenodd" d="M6.54439 2.90726C7.38996 2.87661 8.45081 2.87207 9.10385 3.01072C9.77032 3.15223 10.5796 3.56353 11.1849 3.90822C11.496 4.08538 11.769 4.25422 11.9642 4.37875C12.062 4.4411 12.1406 4.49258 12.1951 4.52872C12.2224 4.5468 12.2437 4.56106 12.2584 4.57094L12.2754 4.58243L12.28 4.58559L12.2814 4.58649C12.2814 4.58653 12.282 4.58695 12 4.99982L12.2814 4.58649C12.5094 4.74225 12.5686 5.05382 12.4129 5.28184C12.2571 5.50985 11.9461 5.56844 11.718 5.41274L11.714 5.41001L11.6999 5.40045C11.6871 5.39187 11.6679 5.37898 11.6428 5.36233C11.5925 5.32903 11.5188 5.28073 11.4264 5.22181C11.2414 5.1038 10.9831 4.94408 10.6901 4.7772C10.0871 4.43382 9.39635 4.09512 8.89615 3.98892C8.38252 3.87986 7.44337 3.87533 6.58061 3.9066C6.16276 3.92175 5.77974 3.94445 5.5 3.96349V15.2493C5.82892 15.1228 6.25458 14.9724 6.73665 14.8336C7.84033 14.5158 9.31332 14.2367 10.6038 14.5107C10.874 14.5681 11.0464 14.8335 10.9891 15.1037C10.9317 15.3738 10.6663 15.5463 10.3962 15.4889C9.35334 15.2675 8.07633 15.4885 7.01335 15.7945C6.4909 15.945 6.03792 16.1106 5.71589 16.2386C5.55512 16.3024 5.42766 16.3567 5.34123 16.3945C5.29803 16.4135 5.26514 16.4283 5.24352 16.4381L5.21968 16.4491L5.21434 16.4516L5.21336 16.452L4.5 16.7889V3.04163L4.95645 3.00172L4.96559 3.00093L4.99056 2.99883L5.08471 2.99121C5.16602 2.9848 5.28303 2.97596 5.42693 2.96615C5.71446 2.94654 6.1106 2.92298 6.54439 2.90726Z" fill="#BBA485"/>
<path fill-rule="evenodd" clip-rule="evenodd" d="M12 5L11.8419 4.52566C11.5799 4.61298 11.4383 4.89614 11.5257 5.15811C11.613 5.42007 11.8961 5.56164 12.1581 5.47436C12.158 5.47437 12.1581 5.47435 12.1581 5.47436L12.1596 5.47387L12.1653 5.47198L12.1892 5.46413C12.2106 5.45716 12.2426 5.44679 12.2844 5.43349C12.368 5.4069 12.4903 5.36867 12.6437 5.32266C12.9506 5.23059 13.3805 5.10778 13.8713 4.98507C14.8642 4.73683 16.0646 4.5 17 4.5C17.8673 4.5 18.5146 4.82344 18.95 5.15C19.1685 5.31384 19.3317 5.47731 19.4388 5.59781C19.4619 5.62382 19.4823 5.64771 19.5 5.66904V14.7448C19.1936 14.629 18.8054 14.4985 18.3713 14.3899C17.3419 14.1326 15.9423 13.9699 14.7764 14.5528C14.5294 14.6763 14.4293 14.9766 14.5528 15.2236C14.6763 15.4706 14.9766 15.5707 15.2236 15.4472C16.0578 15.0301 17.1582 15.1174 18.1287 15.3601C18.6014 15.4782 19.0168 15.6265 19.3143 15.7455C19.4626 15.8048 19.5805 15.8564 19.6603 15.8927C19.7002 15.9108 19.7304 15.925 19.7501 15.9345L19.7716 15.9448L19.7761 15.9471L20.5 16.309V5.34861L20.416 5.22265L20 5.5C20.416 5.22265 20.4162 5.22285 20.416 5.22265L20.4148 5.22087L20.4133 5.21854L20.409 5.21224L20.3958 5.19339C20.3849 5.17814 20.37 5.15759 20.3509 5.13253C20.3127 5.08243 20.2578 5.01402 20.1862 4.93344C20.0433 4.77269 19.8316 4.56116 19.55 4.35C18.9854 3.92656 18.1328 3.5 17 3.5C15.9355 3.5 14.6358 3.76317 13.6287 4.01493C13.1196 4.14222 12.6744 4.26941 12.3563 4.36484C12.1972 4.41258 12.0695 4.45247 11.9812 4.48057C11.9371 4.49462 11.9027 4.50573 11.8792 4.5134L11.8521 4.52229L11.8448 4.52468L11.8419 4.52566C11.8418 4.52568 11.8419 4.52566 12 5Z" fill="#BBA485"/>
<path fill-rule="evenodd" clip-rule="evenodd" d="M13.9667 4.00113C14.2423 3.98276 14.4805 4.19123 14.4989 4.46676L15.4989 19.4663C15.5116 19.6563 15.4152 19.837 15.2504 19.9323C15.0855 20.0277 14.8809 20.0211 14.7225 19.9154L13.5637 19.1422L12.3537 20.3534C12.2108 20.4965 11.9957 20.5394 11.8088 20.462C11.6219 20.3846 11.5 20.2023 11.5 20V7.4878C11.5 7.21166 11.7239 6.9878 12 6.9878C12.2761 6.9878 12.5 7.21166 12.5 7.4878V18.7921L13.1463 18.1452C13.3148 17.9764 13.5791 17.9503 13.7775 18.0827L14.4336 18.5205L13.5011 4.53328C13.4827 4.25775 13.6912 4.0195 13.9667 4.00113Z" fill="#BBA485"/>
<path fill-rule="evenodd" clip-rule="evenodd" d="M15 18C15 17.7239 15.2239 17.5 15.5 17.5H20.5C20.7761 17.5 21 17.7239 21 18C21 18.2761 20.7761 18.5 20.5 18.5H15.5C15.2239 18.5 15 18.2761 15 18Z" fill="#BBA485"/>
</svg>
