<svg width="24" height="24" viewBox="0 0 24 24" fill="none" xmlns="http://www.w3.org/2000/svg">
<path d="M14.5 16.5V18.5" stroke="#BBA485" stroke-linecap="round"/>
<path d="M12 16.5V18.5" stroke="#BBA485" stroke-linecap="round"/>
<path d="M9 18.5L9.5 16.5C9.5 16.5 4.5 15.5 4.5 11.5C4.5 7.5 6.5 6 8.5 5.5C10.5 5 13.5 5 16 5.5C18.5 6 20 6.5 20 11C20 15.5 16.5 15.5 16.5 15.5" stroke="#BBA485" stroke-linecap="round"/>
<path d="M7.37978 12.6902C7.21785 11.2748 7.13788 8.5 9.00026 8.5C10.8626 8.5 10.7827 11.2748 10.6207 12.6902C10.5666 13.1638 10.1571 13.5 9.68045 13.5H8.32007C7.84338 13.5 7.43396 13.1638 7.37978 12.6902Z" stroke="#BBA485" stroke-linecap="round"/>
<path d="M13.6353 12.7358C13.4099 11.3354 13.2098 8.5 15.2859 8.5C17.3621 8.5 17.162 11.3354 16.9365 12.7358C16.8637 13.1884 16.4646 13.5 16.0062 13.5H14.5657C14.1073 13.5 13.7082 13.1884 13.6353 12.7358Z" stroke="#BBA485" stroke-linecap="round"/>
</svg>
