<svg width="25" height="24" viewBox="0 0 25 24" fill="none" xmlns="http://www.w3.org/2000/svg">
<path d="M10.493 12.5C10.493 12.5 9.5 7.18826 9.5 5.24224C9.5 3.29621 15.4612 1.8367 17.5902 2.80971C19.7192 3.78272 17.4443 12.5 17.4443 12.5" stroke="#BBA485" stroke-linecap="round" stroke-linejoin="round"/>
<path d="M10.5 12.5C10.5 12.5 7.08024 14 7.58024 15C8.08024 16 9.99999 17 13.5 17C17 17 17.5 14.5 17.5 14.5" stroke="#BBA485" stroke-linecap="round" stroke-linejoin="round"/>
<path d="M17.5 14.5L18 18.5" stroke="#BBA485" stroke-linecap="round" stroke-linejoin="round"/>
<path d="M12.5 5V11.5" stroke="#BBA485" stroke-linecap="round" stroke-linejoin="round"/>
<path d="M15.5 5L14.5 12" stroke="#BBA485" stroke-linecap="round" stroke-linejoin="round"/>
<path d="M7.5 17L6.5 21" stroke="#BBA485" stroke-linecap="round" stroke-linejoin="round"/>
<path d="M13.4222 17L14.0469 21.0755" stroke="#BBA485" stroke-linecap="round" stroke-linejoin="round"/>
</svg>
