<svg width="40" height="40" viewBox="0 0 40 40" fill="none" xmlns="http://www.w3.org/2000/svg">
<path fill-rule="evenodd" clip-rule="evenodd" d="M13.724 7.19623C14.7831 6.34244 17.0165 5 20.625 5C24.0381 5 26.229 5.95199 27.3618 6.63252C27.7927 6.89135 28.0073 7.43382 27.8884 8.05793L25.636 19.8831C25.6286 19.9223 25.6249 19.9614 25.6249 20H24.8619L24.8642 19.984C24.8741 19.9151 24.8884 19.814 24.9064 19.6849C24.9424 19.4267 24.9932 19.056 25.0523 18.6057C25.1706 17.7053 25.3224 16.4843 25.4566 15.204C25.5905 13.9255 25.7077 12.5797 25.7554 11.4322C25.7793 10.8588 25.7861 10.3267 25.7678 9.87286C25.7501 9.43209 25.7074 9.01794 25.6118 8.70592C25.4843 8.28931 25.1843 7.9831 24.8592 7.7634C24.5315 7.54195 24.1298 7.37457 23.7038 7.24807C22.8503 6.99464 21.7947 6.875 20.7619 6.875C19.7291 6.875 18.6735 6.99464 17.82 7.24808C17.394 7.37457 16.9923 7.54195 16.6646 7.76341C16.3395 7.98311 16.0395 8.28932 15.912 8.70592C15.819 9.0096 15.7683 9.41664 15.7389 9.85633C15.7087 10.3077 15.6986 10.838 15.7025 11.4105C15.7103 12.5561 15.7745 13.9006 15.8559 15.1786C15.9375 16.4582 16.0367 17.6787 16.1156 18.5788C16.155 19.029 16.1893 19.3995 16.2138 19.6576C16.2261 19.7867 16.2359 19.8877 16.2426 19.9565L16.2469 20H15.5172L13.3293 8.51376C13.2243 7.96247 13.3782 7.47502 13.724 7.19623ZM17.5 20C17.5 19.9793 17.499 19.9584 17.4968 19.9373L17.4943 19.9116L17.4867 19.8346C17.4801 19.7669 17.4704 19.6672 17.4582 19.5394C17.434 19.2839 17.3999 18.9166 17.3608 18.4698C17.2825 17.5759 17.1841 16.3658 17.1034 15.0992C17.0226 13.8309 16.96 12.5133 16.9525 11.402C16.9487 10.846 16.9588 10.3491 16.9861 9.93968C17.0143 9.51855 17.0584 9.23115 17.1072 9.07186C17.1214 9.0255 17.1758 8.92662 17.3645 8.7991C17.5506 8.67333 17.8222 8.55136 18.1758 8.44637C18.8815 8.23684 19.8103 8.125 20.7619 8.125C21.7135 8.125 22.6424 8.23684 23.348 8.44637C23.7016 8.55135 23.9732 8.67333 24.1593 8.79909C24.348 8.92661 24.4024 9.02549 24.4166 9.07186C24.4628 9.22279 24.5019 9.50309 24.5188 9.92314C24.5352 10.3301 24.5296 10.8252 24.5065 11.3803C24.4604 12.4898 24.3462 13.806 24.2134 15.0738C24.0807 16.3398 23.9303 17.5493 23.813 18.4429C23.7543 18.8896 23.704 19.2568 23.6684 19.5122C23.6506 19.6398 23.6364 19.7395 23.6268 19.8072L23.6157 19.884L23.612 19.9097C23.6076 19.9401 23.6054 19.9702 23.6054 20H17.5ZM14.3077 20.3307L12.1014 8.74765C11.933 7.86374 12.1479 6.86128 12.9395 6.22309C14.1771 5.22532 16.6797 3.75 20.625 3.75C24.2841 3.75 26.6955 4.77397 28.0056 5.56101C28.9938 6.15473 29.3073 7.28964 29.1164 8.29182L26.864 20.1169C26.8505 20.1878 26.8255 20.2535 26.7914 20.3126C26.7975 20.3234 26.8034 20.3343 26.809 20.3455L29.3034 25.3343C29.3273 25.3797 29.3458 25.4284 29.358 25.4795C29.376 25.5545 29.3796 25.631 29.3699 25.7052C29.3585 25.7944 29.3282 25.8777 29.2833 25.9511C29.198 26.0903 29.0597 26.1935 28.8966 26.2327C28.8437 26.2455 28.7901 26.2511 28.7371 26.25C28.5498 26.2499 28.3451 26.2485 28.125 26.2457V35.625C28.125 35.9702 27.8452 36.25 27.5 36.25C27.1548 36.25 26.875 35.9702 26.875 35.625V26.2201C26.4827 26.2095 26.0641 26.1961 25.625 26.1802V32.5C25.625 32.8452 25.3452 33.125 25 33.125C24.6548 33.125 24.375 32.8452 24.375 32.5V26.1302C22.4872 26.0478 20.3587 25.9256 18.3715 25.7719C17.6406 25.7154 16.9266 25.6545 16.249 25.5894C16.2497 25.6012 16.25 25.6131 16.25 25.625V31.875C16.25 32.2202 15.9702 32.5 15.625 32.5C15.2798 32.5 15 32.2202 15 31.875V25.625C15 25.5687 15.0074 25.5142 15.0214 25.4623C14.3902 25.3915 13.8087 25.3167 13.2971 25.2383C13.239 25.2294 13.1816 25.2205 13.125 25.2114V35.625C13.125 35.9702 12.8452 36.25 12.5 36.25C12.1548 36.25 11.875 35.9702 11.875 35.625V25C11.875 24.9881 11.8753 24.9762 11.876 24.9645C11.7965 24.9441 11.7213 24.9234 11.6507 24.9024C11.4485 24.8422 11.2474 24.7687 11.0846 24.6734C11.0033 24.6259 10.9021 24.5561 10.815 24.4552C10.725 24.3508 10.625 24.1819 10.625 23.9583C10.625 23.6543 10.7653 23.3866 10.8886 23.1988C11.0225 22.9947 11.2001 22.7907 11.3905 22.5973C11.7728 22.2089 12.2688 21.8011 12.7462 21.4374C13.2273 21.0709 13.7062 20.7365 14.0636 20.4944C14.153 20.4339 14.2349 20.379 14.3077 20.3307ZM15.1844 21.25H25.8637L27.7335 24.9895C25.4382 24.9473 21.7613 24.7804 18.4679 24.5257C16.5485 24.3772 14.7745 24.2001 13.4864 24.0027C12.8705 23.9084 12.3871 23.8125 12.0579 23.719C12.1189 23.6455 12.1933 23.5636 12.2813 23.4742C12.6022 23.1482 13.0437 22.7822 13.5038 22.4317C13.9602 22.0839 14.4188 21.7635 14.7645 21.5294C14.937 21.4126 15.0806 21.3178 15.1806 21.2525L15.1844 21.25ZM18.9331 10.8081C19.1771 10.564 19.5729 10.564 19.8169 10.8081L20.625 11.6161L21.4331 10.8081C21.6771 10.564 22.0729 10.564 22.3169 10.8081C22.561 11.0521 22.561 11.4479 22.3169 11.6919L21.5089 12.5L22.3169 13.3081C22.561 13.5521 22.561 13.9479 22.3169 14.1919C22.0729 14.436 21.6771 14.436 21.4331 14.1919L20.625 13.3839L19.8169 14.1919C19.5729 14.436 19.1771 14.436 18.9331 14.1919C18.689 13.9479 18.689 13.5521 18.9331 13.3081L19.7411 12.5L18.9331 11.6919C18.689 11.4479 18.689 11.0521 18.9331 10.8081Z" fill="#BBA485"/>
</svg>
