<svg width="25" height="24" viewBox="0 0 25 24" fill="none" xmlns="http://www.w3.org/2000/svg">
<path d="M14.5 4.5L15.5171 3.8219C15.8157 3.62285 16.1981 3.59904 16.5191 3.75953L17 4L17.7754 3.74153C18.2032 3.59893 18.6735 3.7603 18.9237 4.13552L19.5 5H21" stroke="#BBA485" stroke-linecap="round"/>
<path d="M10 4.5L8.98286 3.8219C8.68427 3.62285 8.30192 3.59904 7.98094 3.75953L7.5 4L6.7246 3.74153C6.29679 3.59893 5.82646 3.7603 5.57632 4.13552L5 5L3.5 5.5" stroke="#BBA485" stroke-linecap="round"/>
<path d="M8 6C6.5 6 4 8 4 8C4 8 5.5 11.5 7.5 11.5C9.5 11.5 12 10 12 10C12 10 15.5 11.5 17.5 11.5C19.5 11.5 21 8 21 8C21 8 18 6 16.5 6C15 6 13 7 12 7C11 7 9.5 6 8 6Z" stroke="#BBA485" stroke-linecap="round"/>
<path d="M5.16667 12L4.56348 19.6641C4.52672 20.1311 4.82916 20.5577 5.28209 20.6776V20.6776C5.89733 20.8405 6.5 20.3766 6.5 19.7401V14.6471" stroke="#BBA485" stroke-linecap="round"/>
<path d="M18 8.44444C18 8.44444 16 7.44444 14.5 8.44444" stroke="#BBA485" stroke-linecap="round"/>
<path d="M10 8.44444C10 8.44444 8 7.44444 6.5 8.44444" stroke="#BBA485" stroke-linecap="round"/>
</svg>
