<svg width="24" height="24" viewBox="0 0 24 24" fill="none" xmlns="http://www.w3.org/2000/svg">
<path d="M16 16V13C16 13 14.5 14 12 14C9.5 14 8 13 8 13V16C6.81036 17.5862 6.24972 19.1724 6.06865 19.7608C6.02037 19.9177 6.02024 20.0845 6.10593 20.2245C6.4257 20.7469 7.64645 22 12 22C16.1908 22 17.4786 20.8388 17.8543 20.286C17.9725 20.1122 17.9585 19.896 17.8772 19.7021C17.5804 18.9949 16.7902 17.1853 16 16Z" stroke="#BBA485"/>
<path d="M14 7.8125C14 9.125 13.6 10 12 10C10.4 10 10 9.125 10 7.8125C10 6.5 12 3 12 3C12 3 14 6.5 14 7.8125Z" fill="#FED3A0" stroke="#BBA485" stroke-linecap="round"/>
<path d="M12 12V8.5L13 12H12Z" fill="#BBA485"/>
</svg>
