<svg width="24" height="24" viewBox="0 0 24 24" fill="none" xmlns="http://www.w3.org/2000/svg">
<path d="M12 5.5C12 5.5 11.5 3.5 8 3.5C4.5 3.5 3.5 4.21875 3.5 9C3.5 13.7812 8.5 14.5 8.5 14.5M14.5 9.5C16.5 9 19 9.5 20 11C21 12.5 20.5 15.5 20 17C19.5 18.5 18.5 20.5 15.5 20.5C12.5 20.5 11.5 17.5 11.5 15C11.5 12.5 12.5 10 14.5 9.5Z" stroke="#BBA485" stroke-linecap="round"/>
<path d="M19.5 13C18.5 13 18 14 18 14C18 14 18.5 14.5 19.5 14.5C20.5 14.5 20.5 13.5 20.5 13.5C20.5 13.5 20.5 13 19.5 13Z" fill="#BBA485"/>
<path d="M14 13C15 13 15.5 14 15.5 14C15.5 14 15 14.5 14 14.5C13 14.5 13 13.5 13 13.5C13 13.5 13 13 14 13Z" fill="#BBA485"/>
<path d="M9.5 7.00005C8.5 7.50005 8.5 8.50005 8.5 8.50005C8.5 8.50005 9 9.00005 10 8.50005C11 8.00005 11 7.00005 11 7.00005C11 7.00005 10.5 6.50005 9.5 7.00005Z" fill="#BBA485"/>
<path d="M5.50727 7.46882C6.60145 7.69856 6.85532 8.6658 6.85532 8.6658C6.85532 8.6658 6.49864 9.27635 5.40447 9.04661C4.31029 8.81687 4.05642 7.84964 4.05642 7.84964C4.05642 7.84964 4.4131 7.23908 5.50727 7.46882Z" fill="#BBA485"/>
<path d="M16.5 9.5C16.5 9.5 17 13 16.5 16C16 19 15.5 20.5 15.5 20.5" stroke="#BBA485"/>
<path d="M7 4C7 4 7 8 8 11.5" stroke="#BBA485" stroke-linecap="round"/>
</svg>
