<svg width="24" height="24" viewBox="0 0 24 24" fill="none" xmlns="http://www.w3.org/2000/svg">
<path d="M3.97168 22.2646L1.73535 20.0283L17.3896 6.61035L3.97168 22.2646Z" stroke="#BBA485" stroke-linecap="round"/>
<path d="M13.5 2.8C14 3.4 15 4 15 4C15 4 14 4.6 13.5 5.2C13 5.8 12.5 7 12.5 7C12.5 7 12 5.8 11.5 5.2C11 4.6 10 4 10 4C10 4 11 3.4 11.5 2.8C12 2.2 12.5 1 12.5 1C12.5 1 13 2.2 13.5 2.8Z" fill="#BBA485"/>
<path d="M18.7409 15.3805C18.8574 15.9349 19.5637 16.839 19.5637 16.839C19.5637 16.839 18.4495 16.7038 17.9252 16.9184C17.4009 17.1329 16.6727 17.7319 16.6727 17.7319C16.6727 17.7319 16.7601 16.7931 16.6437 16.2387C16.5272 15.6843 16.0637 14.839 16.0637 14.839C16.0637 14.839 16.935 14.9153 17.4593 14.7008C17.9836 14.4862 18.7119 13.8872 18.7119 13.8872C18.7119 13.8872 18.6244 14.8261 18.7409 15.3805Z" fill="#BBA485"/>
<path d="M5.75 9.5C6.125 10 7 10.5 7 10.5C7 10.5 6.125 11 5.75 11.5C5.375 12 5 13 5 13C5 13 4.625 12 4.25 11.5C3.875 11 3 10.5 3 10.5C3 10.5 3.875 10 4.25 9.5C4.625 9 5 8 5 8C5 8 5.375 9 5.75 9.5Z" fill="#BBA485"/>
</svg>
